<svg id="visual" viewBox="0 0 900 600" width="900" height="600" xmlns="http://www.w3.org/2000/svg" xmlns:xlink="http://www.w3.org/1999/xlink" version="1.1"><rect x="0" y="0" width="900" height="600" fill="#176192"></rect><defs><linearGradient id="grad1_0" x1="33.3%" y1="0%" x2="100%" y2="100%"><stop offset="20%" stop-color="#176192" stop-opacity="1"></stop><stop offset="80%" stop-color="#176192" stop-opacity="1"></stop></linearGradient></defs><defs><linearGradient id="grad2_0" x1="0%" y1="0%" x2="66.7%" y2="100%"><stop offset="20%" stop-color="#176192" stop-opacity="1"></stop><stop offset="80%" stop-color="#176192" stop-opacity="1"></stop></linearGradient></defs><g transform="translate(900, 0)"><path d="M0 324.5C-61.6 318.8 -123.3 313.2 -162.2 281C-201.2 248.9 -217.5 190.3 -240.8 139C-264 87.7 -294.3 43.9 -324.5 0L0 0Z" fill="#3D9FE1"></path></g><g transform="translate(0, 600)"><path d="M0 -324.5C57.3 -316.3 114.5 -308.1 162.2 -281C210 -253.9 248.2 -208 273.7 -158C299.1 -108 311.8 -54 324.5 0L0 0Z" fill="#3D9FE1"></path></g></svg>