<svg id="visual" viewBox="0 0 900 600" width="900" height="600" xmlns="http://www.w3.org/2000/svg" xmlns:xlink="http://www.w3.org/1999/xlink" version="1.1"><rect x="0" y="0" width="900" height="600" fill="#176192"></rect><path d="M0 283L21.5 298.5C43 314 86 345 128.8 374.8C171.7 404.7 214.3 433.3 257.2 444.5C300 455.7 343 449.3 385.8 427.5C428.7 405.7 471.3 368.3 514.2 337.3C557 306.3 600 281.7 642.8 291.8C685.7 302 728.3 347 771.2 359.8C814 372.7 857 353.3 878.5 343.7L900 334L900 601L878.5 601C857 601 814 601 771.2 601C728.3 601 685.7 601 642.8 601C600 601 557 601 514.2 601C471.3 601 428.7 601 385.8 601C343 601 300 601 257.2 601C214.3 601 171.7 601 128.8 601C86 601 43 601 21.5 601L0 601Z" fill="#3D9FE1" stroke-linecap="round" stroke-linejoin="miter"></path></svg>